<svg width="252" height="92" viewBox="0 0 252 92" fill="none" xmlns="http://www.w3.org/2000/svg">
<path d="M142.365 0H0V92H142.365V0Z" fill="#FFF500"/>
<path d="M13.4612 69.1679V62.712L36.2399 31.4858H13.484V22.2827H50.571V28.7386L27.7923 59.9649H50.5481V69.1679H13.4612ZM57.5019 69.1679V34.004H68.6965V69.1679H57.5019ZM63.1107 29.9061C61.5388 29.9061 60.188 29.3872 59.0586 28.3494C57.9293 27.2963 57.3646 26.0295 57.3646 24.5491C57.3646 23.0839 57.9293 21.8325 59.0586 20.7946C60.188 19.7415 61.5388 19.215 63.1107 19.215C64.698 19.215 66.0487 19.7415 67.1627 20.7946C68.2922 21.8325 68.857 23.0839 68.857 24.5491C68.857 26.0295 68.2922 27.2963 67.1627 28.3494C66.0487 29.3872 64.698 29.9061 63.1107 29.9061ZM92.2136 83.0867C88.8714 83.0867 86.0099 82.6214 83.6287 81.6906C81.2481 80.7592 79.3786 79.4853 78.0201 77.8676C76.6615 76.2492 75.845 74.4179 75.5703 72.3731L86.1698 71.7775C86.3685 72.4953 86.7345 73.1205 87.2691 73.6551C87.8184 74.1889 88.5282 74.6013 89.3978 74.8914C90.2829 75.1815 91.3211 75.3258 92.5111 75.3258C94.3887 75.3258 95.9379 74.8685 97.1588 73.9526C98.395 73.052 99.0128 71.4726 99.0128 69.2135V63.0325H98.624C98.1815 64.1161 97.51 65.0853 96.6094 65.94C95.7089 66.7946 94.5868 67.4662 93.2437 67.9544C91.9161 68.4426 90.3897 68.6871 88.6652 68.6871C86.1013 68.6871 83.7509 68.0921 81.6141 66.9015C79.4927 65.6957 77.7911 63.8338 76.5091 61.3155C75.2419 58.782 74.6087 55.5235 74.6087 51.5401C74.6087 47.4347 75.2654 44.0541 76.5776 41.3985C77.8904 38.7276 79.6069 36.7512 81.7289 35.4692C83.8651 34.1871 86.1624 33.5461 88.6195 33.5461C90.4662 33.5461 92.0457 33.8666 93.3585 34.5077C94.6862 35.1334 95.7774 35.9422 96.6323 36.9343C97.4865 37.9264 98.1352 38.9566 98.5777 40.0249H98.8987V34.004H110.047V69.3055C110.047 72.2811 109.299 74.792 107.804 76.8368C106.308 78.8823 104.217 80.4315 101.531 81.4845C98.845 82.5529 95.7391 83.0867 92.2136 83.0867ZM92.5574 60.5371C93.9152 60.5371 95.0757 60.1785 96.0366 59.4612C96.9983 58.7439 97.7383 57.7137 98.2574 56.3706C98.7765 55.0275 99.0357 53.4174 99.0357 51.5401C99.0357 49.6324 98.7765 47.9917 98.2574 46.6181C97.7537 45.2293 97.0137 44.1609 96.0366 43.413C95.0757 42.6652 93.9152 42.2913 92.5574 42.2913C91.168 42.2913 89.9928 42.6729 89.0319 43.4359C88.0702 44.1991 87.3376 45.2751 86.8339 46.6639C86.3457 48.0375 86.1013 49.6629 86.1013 51.5401C86.1013 53.4174 86.3531 55.0275 86.8568 56.3706C87.3604 57.7137 88.085 58.7439 89.0319 59.4612C89.9928 60.1785 91.168 60.5371 92.5574 60.5371ZM117.185 69.1679V34.004H128.379V69.1679H117.185ZM122.793 29.9061C121.221 29.9061 119.871 29.3872 118.741 28.3494C117.612 27.2963 117.047 26.0295 117.047 24.5491C117.047 23.0839 117.612 21.8325 118.741 20.7946C119.871 19.7415 121.221 19.215 122.793 19.215C124.381 19.215 125.731 19.7415 126.845 20.7946C127.975 21.8325 128.539 23.0839 128.539 24.5491C128.539 26.0295 127.975 27.2963 126.845 28.3494C125.731 29.3872 124.381 29.9061 122.793 29.9061Z" fill="black"/>
<path d="M147.928 69.1679V22.2827H159.123V40.0249H159.351C159.809 38.9565 160.458 37.9263 161.298 36.9343C162.152 35.9422 163.236 35.1334 164.548 34.5076C165.876 33.8666 167.464 33.5461 169.31 33.5461C171.752 33.5461 174.034 34.1871 176.155 35.4691C178.292 36.7512 180.017 38.7276 181.329 41.3984C182.642 44.0693 183.298 47.4728 183.298 51.6088C183.298 55.5922 182.664 58.927 181.398 61.6131C180.146 64.2993 178.453 66.3139 176.316 67.6569C174.194 69 171.836 69.6715 169.242 69.6715C167.471 69.6715 165.937 69.3814 164.64 68.8019C163.343 68.2217 162.252 67.4588 161.366 66.5123C160.496 65.566 159.825 64.5511 159.351 63.4675H159.008V69.1679H147.928ZM158.894 51.5859C158.894 53.4784 159.146 55.1267 159.65 56.5308C160.168 57.9349 160.909 59.0262 161.87 59.8046C162.847 60.5677 164.015 60.9492 165.372 60.9492C166.746 60.9492 167.914 60.5677 168.875 59.8046C169.837 59.0262 170.562 57.9349 171.05 56.5308C171.554 55.1267 171.806 53.4784 171.806 51.5859C171.806 49.6934 171.554 48.0527 171.05 46.6639C170.562 45.2751 169.837 44.1991 168.875 43.4359C167.929 42.6729 166.762 42.2913 165.372 42.2913C163.999 42.2913 162.831 42.6652 161.87 43.413C160.909 44.1609 160.168 45.2293 159.65 46.6181C159.146 48.0069 158.894 49.6629 158.894 51.5859ZM205.579 69.832C201.886 69.832 198.711 69.0765 196.055 67.5656C193.415 66.0391 191.378 63.9177 189.942 61.2011C188.524 58.4691 187.814 55.3023 187.814 51.7004C187.814 48.0833 188.524 44.9164 189.942 42.1997C191.378 39.4678 193.415 37.3463 196.055 35.8354C198.711 34.3092 201.886 33.5461 205.579 33.5461C209.273 33.5461 212.439 34.3092 215.079 35.8354C217.735 37.3463 219.773 39.4678 221.192 42.1997C222.627 44.9164 223.344 48.0833 223.344 51.7004C223.344 55.3023 222.627 58.4691 221.192 61.2011C219.773 63.9177 217.735 66.0391 215.079 67.5656C212.439 69.0765 209.273 69.832 205.579 69.832ZM205.648 61.3842C206.991 61.3842 208.128 60.9721 209.058 60.148C209.99 59.3238 210.7 58.1792 211.188 56.714C211.691 55.2488 211.943 53.5547 211.943 51.6317C211.943 49.6782 211.691 47.9688 211.188 46.5036C210.7 45.0385 209.99 43.8938 209.058 43.0697C208.128 42.2455 206.991 41.8335 205.648 41.8335C204.259 41.8335 203.084 42.2455 202.122 43.0697C201.176 43.8938 200.451 45.0385 199.947 46.5036C199.459 47.9688 199.214 49.6782 199.214 51.6317C199.214 53.5547 199.459 55.2488 199.947 56.714C200.451 58.1792 201.176 59.3238 202.122 60.148C203.084 60.9721 204.259 61.3842 205.648 61.3842ZM248.927 34.004V42.2455H226.744V34.004H248.927ZM231.391 25.5793H242.585V58.1105C242.585 58.7973 242.693 59.3544 242.906 59.7816C243.135 60.1938 243.463 60.4913 243.891 60.6745C244.318 60.8424 244.829 60.9263 245.425 60.9263C245.852 60.9263 246.302 60.8882 246.775 60.8118C247.263 60.7203 247.63 60.644 247.874 60.5829L249.568 68.6642C249.034 68.8167 248.279 69.0074 247.301 69.2364C246.34 69.4654 245.187 69.6104 243.844 69.6715C241.219 69.7937 238.968 69.4882 237.091 68.7555C235.229 68.0081 233.802 66.8481 232.81 65.276C231.833 63.704 231.361 61.7276 231.391 59.3467V25.5793Z" fill="white"/>
</svg>
