<svg width="39" height="30" viewBox="0 0 39 30" fill="none" xmlns="http://www.w3.org/2000/svg">
<g clip-path="url(#clip0_118_2)">
<path d="M32.6954 2.50206C30.1644 1.31785 27.4869 0.476412 24.7335 0C24.3905 0.62005 23.9898 1.45402 23.7135 2.11749C20.7448 1.67111 17.8035 1.67111 14.8894 2.11749C14.6132 1.45417 14.2035 0.62005 13.8573 0C11.1013 0.476631 8.42141 1.32021 5.88926 2.50824C0.850464 10.1227 -0.515516 17.5477 0.167399 24.8677C3.50946 27.3635 6.74825 28.8796 9.93247 29.8717C10.7238 28.7834 11.4234 27.6313 12.0239 26.4271C10.8806 25.9919 9.77845 25.4555 8.73051 24.8243C9.00629 24.6199 9.27557 24.4069 9.53795 24.1856C15.888 27.1557 22.7877 27.1557 29.0621 24.1856C29.3256 24.4054 29.5948 24.6184 29.8694 24.8243C28.8197 25.4571 27.7155 25.9946 26.57 26.4303C27.1739 27.6393 27.8722 28.7926 28.6614 29.8747C31.8486 28.8828 35.0904 27.3666 38.4325 24.8677C39.2339 16.3821 37.0636 9.02503 32.6954 2.50191V2.50206ZM12.8891 20.3661C10.9828 20.3661 9.41946 18.5864 9.41946 16.4193C9.41946 14.2523 10.9495 12.4696 12.8891 12.4696C14.8288 12.4696 16.392 14.2491 16.3587 16.4193C16.3617 18.5864 14.8288 20.3661 12.8891 20.3661ZM25.7108 20.3661C23.8045 20.3661 22.2414 18.5864 22.2414 16.4193C22.2414 14.2523 23.7712 12.4696 25.7108 12.4696C27.6506 12.4696 29.2137 14.2491 29.1804 16.4193C29.1804 18.5864 27.6506 20.3661 25.7108 20.3661Z" fill="#FFF500"/>
</g>
<defs>
<clipPath id="clip0_118_2">
<rect width="38.6" height="30" fill="white"/>
</clipPath>
</defs>
</svg>
