<svg width="30" height="30" viewBox="0 0 30 30" fill="none" xmlns="http://www.w3.org/2000/svg">
<path d="M4.6875 13.125C4.43886 13.125 4.2004 13.0262 4.02459 12.8504C3.84877 12.6746 3.75 12.4361 3.75 12.1875V4.68938C3.75 4.44074 3.84877 4.20228 4.02459 4.02646C4.2004 3.85065 4.43886 3.75188 4.6875 3.75188H12.1875C12.4361 3.75188 12.6746 3.85065 12.8504 4.02646C13.0262 4.20228 13.125 4.44074 13.125 4.68938V12.1875C13.125 12.4361 13.0262 12.6746 12.8504 12.8504C12.6746 13.0262 12.4361 13.125 12.1875 13.125H4.6875ZM17.8125 13.125C17.5639 13.125 17.3254 13.0262 17.1496 12.8504C16.9738 12.6746 16.875 12.4361 16.875 12.1875V4.68938C16.875 4.44074 16.9738 4.20228 17.1496 4.02646C17.3254 3.85065 17.5639 3.75188 17.8125 3.75188H25.3106C25.5593 3.75188 25.7977 3.85065 25.9735 4.02646C26.1494 4.20228 26.2481 4.44074 26.2481 4.68938V12.1875C26.2481 12.4361 26.1494 12.6746 25.9735 12.8504C25.7977 13.0262 25.5593 13.125 25.3106 13.125H17.8125ZM4.6875 26.25C4.43886 26.25 4.2004 26.1512 4.02459 25.9754C3.84877 25.7996 3.75 25.5611 3.75 25.3125V17.8125C3.75 17.5639 3.84877 17.3254 4.02459 17.1496C4.2004 16.9738 4.43886 16.875 4.6875 16.875H12.1875C12.4361 16.875 12.6746 16.9738 12.8504 17.1496C13.0262 17.3254 13.125 17.5639 13.125 17.8125V25.3125C13.125 25.5611 13.0262 25.7996 12.8504 25.9754C12.6746 26.1512 12.4361 26.25 12.1875 26.25H4.6875ZM17.8125 26.25C17.5639 26.25 17.3254 26.1512 17.1496 25.9754C16.9738 25.7996 16.875 25.5611 16.875 25.3125V17.8125C16.875 17.5639 16.9738 17.3254 17.1496 17.1496C17.3254 16.9738 17.5639 16.875 17.8125 16.875H25.3106C25.5593 16.875 25.7977 16.9738 25.9735 17.1496C26.1494 17.3254 26.2481 17.5639 26.2481 17.8125V25.3125C26.2481 25.5611 26.1494 25.7996 25.9735 25.9754C25.7977 26.1512 25.5593 26.25 25.3106 26.25H17.8125Z" fill="white"/>
</svg>
