<svg width="31" height="30" viewBox="0 0 31 30" fill="none" xmlns="http://www.w3.org/2000/svg">
<g clip-path="url(#clip0_118_6)">
<path d="M15.6 0C11.525 0 11.0163 0.01875 9.41626 0.09C7.81876 0.165 6.73126 0.41625 5.77501 0.7875C4.78876 1.17 3.95126 1.68375 3.11751 2.5175C2.28376 3.35125 1.76876 4.1875 1.38751 5.175C1.01626 6.13125 0.763756 7.21875 0.690006 8.81625C0.615006 10.4163 0.600006 10.925 0.600006 15C0.600006 19.075 0.618756 19.5837 0.690006 21.1838C0.765006 22.78 1.01626 23.8688 1.38751 24.825C1.76412 25.8261 2.3545 26.733 3.11751 27.4825C3.8666 28.246 4.77363 28.8365 5.77501 29.2125C6.73251 29.5825 7.82001 29.8363 9.41626 29.91C11.0163 29.985 11.525 30 15.6 30C19.675 30 20.1838 29.9812 21.7838 29.91C23.38 29.835 24.4688 29.5825 25.425 29.2125C26.4258 28.8354 27.3326 28.2451 28.0825 27.4825C28.8463 26.7336 29.4368 25.8265 29.8125 24.825C30.1825 23.8688 30.4363 22.78 30.51 21.1838C30.585 19.5837 30.6 19.075 30.6 15C30.6 10.925 30.5813 10.4163 30.51 8.81625C30.435 7.22 30.1825 6.13 29.8125 5.175C29.4357 4.17402 28.8454 3.26716 28.0825 2.5175C27.334 1.7533 26.4268 1.16274 25.425 0.7875C24.4688 0.41625 23.38 0.16375 21.7838 0.09C20.1838 0.015 19.675 0 15.6 0ZM15.6 2.7C19.6038 2.7 20.0813 2.72 21.6625 2.78875C23.125 2.8575 23.9188 3.1 24.4463 3.3075C25.1488 3.57875 25.6463 3.90375 26.1738 4.4275C26.6975 4.9525 27.0225 5.45125 27.2938 6.15375C27.4988 6.68125 27.7438 7.475 27.81 8.9375C27.8813 10.52 27.8975 10.995 27.8975 15C27.8975 19.005 27.8788 19.4813 27.805 21.0625C27.7288 22.525 27.485 23.3188 27.2788 23.8462C27.0347 24.4972 26.6512 25.0868 26.155 25.5737C25.6702 26.0704 25.0809 26.4529 24.43 26.6937C23.905 26.8988 23.0988 27.1437 21.6363 27.21C20.0438 27.2812 19.575 27.2975 15.5625 27.2975C11.5488 27.2975 11.08 27.2787 9.48876 27.205C8.02501 27.1287 7.21876 26.885 6.69376 26.6788C6.04239 26.4377 5.45335 26.0537 4.97001 25.555C4.46823 25.0734 4.0834 24.4833 3.84501 23.83C3.63876 23.305 3.39626 22.4988 3.32001 21.0363C3.26376 19.4613 3.24376 18.975 3.24376 14.9812C3.24376 10.9862 3.26376 10.4987 3.32001 8.905C3.39626 7.4425 3.63876 6.6375 3.84501 6.1125C4.10751 5.4 4.44376 4.9125 4.97001 4.38625C5.49376 3.8625 5.98251 3.525 6.69376 3.26375C7.21876 3.05625 8.00751 2.8125 9.47001 2.7375C11.0638 2.68125 11.5325 2.6625 15.5438 2.6625L15.6 2.7ZM15.6 7.2975C14.5885 7.2975 13.5869 7.49673 12.6524 7.88382C11.7179 8.2709 10.8688 8.83827 10.1535 9.55351C9.43827 10.2688 8.87091 11.1179 8.48382 12.0524C8.09674 12.9869 7.89751 13.9885 7.89751 15C7.89751 16.0115 8.09674 17.0131 8.48382 17.9476C8.87091 18.8821 9.43827 19.7312 10.1535 20.4465C10.8688 21.1617 11.7179 21.7291 12.6524 22.1162C13.5869 22.5033 14.5885 22.7025 15.6 22.7025C17.6428 22.7025 19.602 21.891 21.0465 20.4465C22.491 19.002 23.3025 17.0428 23.3025 15C23.3025 12.9572 22.491 10.998 21.0465 9.55351C19.602 8.10901 17.6428 7.2975 15.6 7.2975ZM15.6 20C12.8375 20 10.6 17.7625 10.6 15C10.6 12.2375 12.8375 10 15.6 10C18.3625 10 20.6 12.2375 20.6 15C20.6 17.7625 18.3625 20 15.6 20ZM25.4075 6.99375C25.3901 7.45953 25.1929 7.90045 24.8572 8.22384C24.5216 8.54723 24.0736 8.72791 23.6075 8.72791C23.1414 8.72791 22.6934 8.54723 22.3578 8.22384C22.0221 7.90045 21.8249 7.45953 21.8075 6.99375C21.8075 6.51636 21.9971 6.05852 22.3347 5.72096C22.6723 5.38339 23.1301 5.19375 23.6075 5.19375C24.0849 5.19375 24.5427 5.38339 24.8803 5.72096C25.2179 6.05852 25.4075 6.51636 25.4075 6.99375Z" fill="#FFF736"/>
</g>
<defs>
<clipPath id="clip0_118_6">
<rect width="30" height="30" fill="white" transform="translate(0.600006)"/>
</clipPath>
</defs>
</svg>
