<svg width="31" height="30" viewBox="0 0 31 30" fill="none" xmlns="http://www.w3.org/2000/svg">
<path d="M28.1 7.24999C27.1604 7.65761 26.1668 7.92707 25.15 8.04999C26.2227 7.40914 27.0266 6.40097 27.4125 5.21249C26.4044 5.81257 25.301 6.23536 24.15 6.46249C23.3807 5.6282 22.3562 5.07286 21.2373 4.88355C20.1183 4.69425 18.9682 4.88169 17.9672 5.41647C16.9663 5.95126 16.1712 6.80315 15.7066 7.83853C15.2419 8.87391 15.1341 10.0342 15.4 11.1375C13.3618 11.0344 11.3681 10.5037 9.54832 9.57981C7.72859 8.65595 6.12356 7.3596 4.83751 5.77499C4.38643 6.5627 4.14941 7.45477 4.15001 8.36249C4.14841 9.20547 4.35528 10.0358 4.7522 10.7794C5.14912 11.5231 5.72378 12.1571 6.42501 12.625C5.60998 12.6028 4.81236 12.3841 4.10001 11.9875V12.05C4.10611 13.2311 4.52 14.3739 5.27165 15.2849C6.0233 16.196 7.06658 16.8195 8.22501 17.05C7.77908 17.1857 7.3161 17.2572 6.85001 17.2625C6.52737 17.2587 6.20553 17.2295 5.88751 17.175C6.21739 18.191 6.85578 19.0789 7.71385 19.7152C8.57191 20.3515 9.60698 20.7044 10.675 20.725C8.87151 22.1441 6.64486 22.9186 4.35001 22.925C3.93218 22.9264 3.51468 22.9013 3.10001 22.85C5.44304 24.3628 8.17352 25.1659 10.9625 25.1625C12.8871 25.1825 14.7964 24.8188 16.5789 24.0926C18.3614 23.3664 19.9813 22.2923 21.344 20.9331C22.7067 19.5739 23.785 17.9567 24.5157 16.1761C25.2464 14.3955 25.6151 12.4871 25.6 10.5625V9.89999C26.5809 9.1685 27.4268 8.27177 28.1 7.24999Z" fill="#FFF736"/>
</svg>
