<svg width="252" height="92" viewBox="0 0 252 92" fill="none" xmlns="http://www.w3.org/2000/svg">
<path d="M142.365 0H0V92H142.365V0Z" fill="#FFF500"/>
<path d="M13.4609 69.1679V62.712L36.2396 31.4858H13.4838V22.2827H50.5707V28.7386L27.7921 59.9649H50.5478V69.1679H13.4609ZM57.5016 69.1679V34.004H68.6962V69.1679H57.5016ZM63.1105 29.9061C61.5385 29.9061 60.1878 29.3872 59.0584 28.3494C57.929 27.2963 57.3643 26.0296 57.3643 24.5491C57.3643 23.0839 57.929 21.8325 59.0584 20.7946C60.1878 19.7415 61.5385 19.215 63.1105 19.215C64.6978 19.215 66.0484 19.7415 67.1624 20.7946C68.292 21.8325 68.8567 23.0839 68.8567 24.5491C68.8567 26.0296 68.292 27.2963 67.1624 28.3494C66.0484 29.3872 64.6978 29.9061 63.1105 29.9061ZM92.2133 83.0868C88.8711 83.0868 86.0097 82.6214 83.6284 81.6906C81.2478 80.7592 79.3783 79.4853 78.0198 77.8676C76.6613 76.2492 75.8447 74.4179 75.57 72.3731L86.1695 71.7775C86.3683 72.4953 86.7343 73.1205 87.2688 73.6551C87.8181 74.1889 88.5279 74.6013 89.3976 74.8914C90.2826 75.1815 91.3208 75.3258 92.5108 75.3258C94.3884 75.3258 95.9376 74.8685 97.1585 73.9526C98.3948 73.052 99.0126 71.4726 99.0126 69.2136V63.0325H98.6238C98.1812 64.1162 97.5097 65.0853 96.6092 65.94C95.7086 66.7946 94.5865 67.4662 93.2434 67.9544C91.9158 68.4426 90.3894 68.6871 88.6649 68.6871C86.101 68.6871 83.7506 68.0921 81.6138 66.9015C79.4924 65.6957 77.7908 63.8338 76.5088 61.3155C75.2416 58.782 74.6084 55.5236 74.6084 51.5402C74.6084 47.4347 75.2651 44.0541 76.5773 41.3985C77.8902 38.7276 79.6066 36.7512 81.7287 35.4692C83.8648 34.1871 86.1621 33.5461 88.6193 33.5461C90.466 33.5461 92.0454 33.8666 93.3583 34.5077C94.6859 35.1334 95.7771 35.9423 96.632 36.9343C97.4862 37.9264 98.1349 38.9566 98.5774 40.0249H98.8984V34.004H110.047V69.3056C110.047 72.2811 109.299 74.792 107.804 76.8368C106.308 78.8823 104.217 80.4315 101.531 81.4845C98.8447 82.5529 95.7388 83.0868 92.2133 83.0868ZM92.5571 60.5371C93.915 60.5371 95.0754 60.1785 96.0363 59.4612C96.998 58.7439 97.738 57.7137 98.2571 56.3706C98.7762 55.0276 99.0354 53.4174 99.0354 51.5402C99.0354 49.6324 98.7762 47.9917 98.2571 46.6182C97.7534 45.2293 97.0134 44.1609 96.0363 43.4131C95.0754 42.6652 93.915 42.2913 92.5571 42.2913C91.1677 42.2913 89.9925 42.6729 89.0316 43.436C88.0699 44.1991 87.3373 45.2751 86.8337 46.6639C86.3455 48.0375 86.101 49.6629 86.101 51.5402C86.101 53.4174 86.3528 55.0276 86.8565 56.3706C87.3601 57.7137 88.0847 58.7439 89.0316 59.4612C89.9925 60.1785 91.1677 60.5371 92.5571 60.5371ZM117.184 69.1679V34.004H128.379V69.1679H117.184ZM122.793 29.9061C121.221 29.9061 119.87 29.3872 118.741 28.3494C117.611 27.2963 117.047 26.0296 117.047 24.5491C117.047 23.0839 117.611 21.8325 118.741 20.7946C119.87 19.7415 121.221 19.215 122.793 19.215C124.38 19.215 125.731 19.7415 126.845 20.7946C127.974 21.8325 128.539 23.0839 128.539 24.5491C128.539 26.0296 127.974 27.2963 126.845 28.3494C125.731 29.3872 124.38 29.9061 122.793 29.9061Z" fill="black"/>
<path d="M147.928 69.1679V22.2827H159.123V40.0249H159.351C159.809 38.9566 160.458 37.9264 161.297 36.9343C162.152 35.9423 163.236 35.1334 164.548 34.5077C165.876 33.8666 167.463 33.5461 169.31 33.5461C171.752 33.5461 174.034 34.1871 176.155 35.4692C178.292 36.7512 180.016 38.7276 181.329 41.3985C182.641 44.0693 183.298 47.4728 183.298 51.6088C183.298 55.5922 182.664 58.927 181.398 61.6131C180.146 64.2993 178.452 66.3139 176.315 67.6569C174.194 69 171.836 69.6715 169.242 69.6715C167.471 69.6715 165.937 69.3814 164.64 68.8019C163.343 68.2217 162.252 67.4588 161.366 66.5123C160.496 65.566 159.825 64.5511 159.351 63.4675H159.008V69.1679H147.928ZM158.894 51.5859C158.894 53.4785 159.146 55.1267 159.649 56.5308C160.168 57.935 160.908 59.0262 161.869 59.8046C162.847 60.5677 164.014 60.9493 165.372 60.9493C166.746 60.9493 167.913 60.5677 168.875 59.8046C169.837 59.0262 170.562 57.935 171.05 56.5308C171.554 55.1267 171.805 53.4785 171.805 51.5859C171.805 49.6934 171.554 48.0527 171.05 46.6639C170.562 45.2751 169.837 44.1991 168.875 43.436C167.929 42.6729 166.762 42.2913 165.372 42.2913C163.999 42.2913 162.831 42.6652 161.869 43.4131C160.908 44.1609 160.168 45.2293 159.649 46.6181C159.146 48.0069 158.894 49.6629 158.894 51.5859ZM205.579 69.832C201.885 69.832 198.71 69.0765 196.055 67.5656C193.415 66.0391 191.377 63.9177 189.942 61.2011C188.523 58.4692 187.813 55.3023 187.813 51.7004C187.813 48.0833 188.523 44.9164 189.942 42.1997C191.377 39.4678 193.415 37.3464 196.055 35.8354C198.71 34.3092 201.885 33.5461 205.579 33.5461C209.272 33.5461 212.439 34.3092 215.079 35.8354C217.735 37.3464 219.772 39.4678 221.192 42.1997C222.626 44.9164 223.344 48.0833 223.344 51.7004C223.344 55.3023 222.626 58.4692 221.192 61.2011C219.772 63.9177 217.735 66.0391 215.079 67.5656C212.439 69.0765 209.272 69.832 205.579 69.832ZM205.647 61.3842C206.99 61.3842 208.127 60.9722 209.058 60.148C209.989 59.3238 210.699 58.1792 211.187 56.714C211.691 55.2488 211.943 53.5547 211.943 51.6317C211.943 49.6782 211.691 47.9688 211.187 46.5036C210.699 45.0385 209.989 43.8938 209.058 43.0697C208.127 42.2455 206.99 41.8335 205.647 41.8335C204.259 41.8335 203.083 42.2455 202.122 43.0697C201.176 43.8938 200.45 45.0385 199.947 46.5036C199.458 47.9688 199.214 49.6782 199.214 51.6317C199.214 53.5547 199.458 55.2488 199.947 56.714C200.45 58.1792 201.176 59.3238 202.122 60.148C203.083 60.9722 204.259 61.3842 205.647 61.3842ZM248.927 34.004V42.2455H226.744V34.004H248.927ZM231.391 25.5793H242.585V58.1105C242.585 58.7973 242.692 59.3544 242.906 59.7817C243.135 60.1938 243.463 60.4913 243.89 60.6745C244.318 60.8424 244.829 60.9264 245.424 60.9264C245.851 60.9264 246.302 60.8882 246.775 60.8119C247.263 60.7203 247.63 60.644 247.873 60.5829L249.568 68.6642C249.034 68.8167 248.278 69.0074 247.301 69.2364C246.34 69.4654 245.187 69.6104 243.844 69.6715C241.219 69.7938 238.968 69.4882 237.091 68.7556C235.229 68.0081 233.802 66.8481 232.81 65.276C231.833 63.704 231.36 61.7276 231.391 59.3467V25.5793Z" fill="white"/>
</svg>
