<svg width="500" height="278" viewBox="0 0 500 278" fill="none" xmlns="http://www.w3.org/2000/svg">
<path d="M0 217.039V188.989L98.9703 53.315H0.0992037V13.3287H161.237V41.3789L62.2668 177.053H161.138V217.039H0ZM191.351 217.039V64.2564H239.99V217.039H191.351ZM215.721 46.4516C208.891 46.4516 203.022 44.1971 198.115 39.6877C193.208 35.1122 190.754 29.6085 190.754 23.1761C190.754 16.8102 193.208 11.3727 198.115 6.86336C203.022 2.28779 208.891 0 215.721 0C222.617 0 228.486 2.28779 233.326 6.86336C238.234 11.3727 240.687 16.8102 240.687 23.1761C240.687 29.6085 238.234 35.1122 233.326 39.6877C228.486 44.1971 222.617 46.4516 215.721 46.4516ZM342.169 277.515C327.647 277.515 315.215 275.493 304.868 271.449C294.525 267.402 286.402 261.867 280.5 254.838C274.597 247.806 271.049 239.85 269.856 230.965L315.909 228.377C316.773 231.496 318.363 234.213 320.685 236.535C323.072 238.855 326.156 240.646 329.935 241.907C333.78 243.167 338.291 243.794 343.461 243.794C351.619 243.794 358.35 241.807 363.655 237.828C369.026 233.915 371.711 227.053 371.711 217.237V190.381H370.021C368.098 195.09 365.181 199.301 361.268 203.014C357.355 206.727 352.48 209.645 346.645 211.767C340.876 213.888 334.244 214.95 326.751 214.95C315.612 214.95 305.4 212.365 296.115 207.192C286.898 201.953 279.505 193.863 273.935 182.921C268.429 171.914 265.678 157.756 265.678 140.449C265.678 122.611 268.531 107.923 274.232 96.3844C279.937 84.78 287.394 76.1925 296.614 70.6223C305.896 65.0521 315.877 62.2668 326.553 62.2668C334.577 62.2668 341.439 63.6595 347.143 66.4447C352.912 69.1635 357.653 72.6779 361.367 76.9882C365.079 81.2986 367.897 85.7746 369.82 90.4164H371.215V64.2564H419.655V217.637C419.655 230.565 416.404 241.475 409.907 250.359C403.409 259.247 394.323 265.978 382.652 270.553C370.981 275.195 357.487 277.515 342.169 277.515ZM343.663 179.539C349.562 179.539 354.604 177.981 358.779 174.865C362.957 171.748 366.173 167.272 368.428 161.436C370.684 155.601 371.81 148.605 371.81 140.449C371.81 132.16 370.684 125.031 368.428 119.063C366.24 113.029 363.025 108.387 358.779 105.138C354.604 101.888 349.562 100.264 343.663 100.264C337.626 100.264 332.52 101.922 328.345 105.237C324.166 108.553 320.983 113.228 318.795 119.262C316.674 125.23 315.612 132.292 315.612 140.449C315.612 148.605 316.706 155.601 318.894 161.436C321.082 167.272 324.231 171.748 328.345 174.865C332.52 177.981 337.626 179.539 343.663 179.539ZM450.664 217.039V64.2564H499.303V217.039H450.664ZM475.033 46.4516C468.203 46.4516 462.335 44.1971 457.427 39.6877C452.52 35.1122 450.066 29.6085 450.066 23.1761C450.066 16.8102 452.52 11.3727 457.427 6.86336C462.335 2.28779 468.203 0 475.033 0C481.931 0 487.798 2.28779 492.639 6.86336C497.546 11.3727 500 16.8102 500 23.1761C500 29.6085 497.546 35.1122 492.639 39.6877C487.798 44.1971 481.931 46.4516 475.033 46.4516Z" fill="black"/>
</svg>
